<svg width="1342" height="824" viewBox="0 0 1342 824" fill="none" xmlns="http://www.w3.org/2000/svg">
<mask id="path-1-inside-1_496_1579" fill="white">
<path fill-rule="evenodd" clip-rule="evenodd" d="M296.288 0C302.516 0 308.178 3.61362 310.8 9.26222L328.2 46.7378C330.822 52.3864 336.484 56 342.712 56H1310C1318.84 56 1326 63.1634 1326 72V492.935C1326 495.602 1326.67 498.228 1327.94 500.572L1340.06 522.88C1341.33 525.225 1342 527.85 1342 530.518V792C1342 800.837 1334.84 808 1326 808H329.065C326.398 808 323.772 808.667 321.428 809.941L299.12 822.059C296.775 823.333 294.15 824 291.482 824H30.0001C21.1635 824 14.0001 816.837 14.0001 808V583.702C14.0001 581.034 13.333 578.409 12.0594 576.065L3.94063 561.12C2.66711 558.775 2 556.15 2 553.482L2.00001 282C2.00001 278.686 4.68631 276 8.00004 276C11.3138 276 14.0001 273.314 14.0001 270V56V16C14.0001 7.16344 21.1635 0 30.0001 0H296.288ZM337.537 46.8642L318.372 6.86418C317.736 5.53661 318.704 4 320.176 4H322.659C323.429 4 324.13 4.44169 324.463 5.13582L343.628 45.1358C344.264 46.4634 343.296 48 341.824 48H339.341C338.571 48 337.87 47.5583 337.537 46.8642ZM332.372 6.86418L351.537 46.8642C351.87 47.5583 352.571 48 353.341 48H355.824C357.296 48 358.264 46.4634 357.628 45.1358L338.463 5.13582C338.13 4.44169 337.429 4 336.659 4H334.176C332.704 4 331.736 5.53661 332.372 6.86418ZM365.537 46.8642L346.372 6.86418C345.736 5.53661 346.704 4 348.176 4H350.659C351.429 4 352.13 4.44169 352.463 5.13582L371.628 45.1358C372.264 46.4634 371.296 48 369.824 48H367.341C366.571 48 365.87 47.5583 365.537 46.8642ZM38 72C33.5817 72 30 75.5817 30 80V784C30 788.418 33.5818 792 38 792H1302C1306.42 792 1310 788.418 1310 784V80C1310 75.5817 1306.42 72 1302 72H38Z"/>
</mask>
<path fill-rule="evenodd" clip-rule="evenodd" d="M296.288 0C302.516 0 308.178 3.61362 310.8 9.26222L328.2 46.7378C330.822 52.3864 336.484 56 342.712 56H1310C1318.84 56 1326 63.1634 1326 72V492.935C1326 495.602 1326.67 498.228 1327.94 500.572L1340.06 522.88C1341.33 525.225 1342 527.85 1342 530.518V792C1342 800.837 1334.84 808 1326 808H329.065C326.398 808 323.772 808.667 321.428 809.941L299.12 822.059C296.775 823.333 294.15 824 291.482 824H30.0001C21.1635 824 14.0001 816.837 14.0001 808V583.702C14.0001 581.034 13.333 578.409 12.0594 576.065L3.94063 561.12C2.66711 558.775 2 556.15 2 553.482L2.00001 282C2.00001 278.686 4.68631 276 8.00004 276C11.3138 276 14.0001 273.314 14.0001 270V56V16C14.0001 7.16344 21.1635 0 30.0001 0H296.288ZM337.537 46.8642L318.372 6.86418C317.736 5.53661 318.704 4 320.176 4H322.659C323.429 4 324.13 4.44169 324.463 5.13582L343.628 45.1358C344.264 46.4634 343.296 48 341.824 48H339.341C338.571 48 337.87 47.5583 337.537 46.8642ZM332.372 6.86418L351.537 46.8642C351.87 47.5583 352.571 48 353.341 48H355.824C357.296 48 358.264 46.4634 357.628 45.1358L338.463 5.13582C338.13 4.44169 337.429 4 336.659 4H334.176C332.704 4 331.736 5.53661 332.372 6.86418ZM365.537 46.8642L346.372 6.86418C345.736 5.53661 346.704 4 348.176 4H350.659C351.429 4 352.13 4.44169 352.463 5.13582L371.628 45.1358C372.264 46.4634 371.296 48 369.824 48H367.341C366.571 48 365.87 47.5583 365.537 46.8642ZM38 72C33.5817 72 30 75.5817 30 80V784C30 788.418 33.5818 792 38 792H1302C1306.42 792 1310 788.418 1310 784V80C1310 75.5817 1306.42 72 1302 72H38Z" fill="url(#paint0_linear_496_1579)" fill-opacity="0.9"/>
<path d="M310.8 9.26222L309.893 9.68333L310.8 9.26222ZM328.2 46.7378L329.107 46.3167L328.2 46.7378ZM1327.94 500.572L1328.82 500.095L1327.94 500.572ZM1340.06 522.88L1339.18 523.358L1340.06 522.88ZM1326 808V809V808ZM321.428 809.941L320.95 809.062L321.428 809.941ZM299.12 822.059L299.597 822.938L299.12 822.059ZM12.0594 576.065L11.1807 576.542H11.1807L12.0594 576.065ZM3.94063 561.12L4.81934 560.642H4.81934L3.94063 561.12ZM2 553.482H1H2ZM2.00001 282H1.00001H2.00001ZM318.372 6.86418L317.47 7.29625V7.29626L318.372 6.86418ZM337.537 46.8642L336.635 47.2963V47.2963L337.537 46.8642ZM324.463 5.13582L325.365 4.70374V4.70373L324.463 5.13582ZM343.628 45.1358L344.53 44.7037V44.7037L343.628 45.1358ZM351.537 46.8642L350.635 47.2963V47.2963L351.537 46.8642ZM332.372 6.86418L331.47 7.29625V7.29626L332.372 6.86418ZM357.628 45.1358L358.53 44.7037V44.7037L357.628 45.1358ZM338.463 5.13582L339.365 4.70374V4.70373L338.463 5.13582ZM346.372 6.86418L345.47 7.29625V7.29626L346.372 6.86418ZM365.537 46.8642L364.635 47.2963V47.2963L365.537 46.8642ZM352.463 5.13582L353.365 4.70374V4.70373L352.463 5.13582ZM371.628 45.1358L372.53 44.7037V44.7037L371.628 45.1358ZM311.707 8.84111C308.921 2.83947 302.905 -1 296.288 -1V1C302.127 1 307.435 4.38777 309.893 9.68333L311.707 8.84111ZM329.107 46.3167L311.707 8.84111L309.893 9.68333L327.293 47.1589L329.107 46.3167ZM342.712 55C336.873 55 331.565 51.6122 329.107 46.3167L327.293 47.1589C330.079 53.1605 336.095 57 342.712 57V55ZM1310 55H342.712V57H1310V55ZM1327 72C1327 62.6112 1319.39 55 1310 55V57C1318.28 57 1325 63.7157 1325 72H1327ZM1327 492.935V72H1325V492.935H1327ZM1328.82 500.095C1327.63 497.897 1327 495.436 1327 492.935H1325C1325 495.769 1325.71 498.559 1327.06 501.05L1328.82 500.095ZM1340.94 522.403L1328.82 500.095L1327.06 501.05L1339.18 523.358L1340.94 522.403ZM1343 530.518C1343 527.683 1342.29 524.894 1340.94 522.403L1339.18 523.358C1340.37 525.555 1341 528.017 1341 530.518H1343ZM1343 792V530.518H1341V792H1343ZM1326 809C1335.39 809 1343 801.389 1343 792H1341C1341 800.284 1334.28 807 1326 807V809ZM329.065 809H1326V807H329.065V809ZM321.905 810.819C324.103 809.625 326.564 809 329.065 809V807C326.231 807 323.441 807.709 320.95 809.062L321.905 810.819ZM299.597 822.938L321.905 810.819L320.95 809.062L298.642 821.181L299.597 822.938ZM291.482 825C294.317 825 297.106 824.291 299.597 822.938L298.642 821.181C296.445 822.375 293.983 823 291.482 823V825ZM30.0001 825H291.482V823H30.0001V825ZM13.0001 808C13.0001 817.389 20.6113 825 30.0001 825V823C21.7158 823 15.0001 816.284 15.0001 808H13.0001ZM13.0001 583.702V808H15.0001V583.702H13.0001ZM11.1807 576.542C12.3746 578.74 13.0001 581.201 13.0001 583.702H15.0001C15.0001 580.868 14.2913 578.078 12.9381 575.587L11.1807 576.542ZM3.06192 561.597L11.1807 576.542L12.9381 575.587L4.81934 560.642L3.06192 561.597ZM1 553.482C1 556.317 1.7088 559.106 3.06192 561.597L4.81934 560.642C3.62542 558.445 3 555.983 3 553.482H1ZM1.00001 282L1 553.482H3L3.00001 282H1.00001ZM8.00004 275C4.13403 275 1.00001 278.134 1.00001 282H3.00001C3.00001 279.239 5.2386 277 8.00004 277V275ZM13.0001 270C13.0001 272.761 10.7615 275 8.00004 275V277C11.866 277 15.0001 273.866 15.0001 270H13.0001ZM13.0001 56V270H15.0001V56H13.0001ZM13.0001 16V56H15.0001V16H13.0001ZM30.0001 -1C20.6112 -1 13.0001 6.61116 13.0001 16H15.0001C15.0001 7.71573 21.7158 1 30.0001 1V-1ZM296.288 -1H30.0001V1H296.288V-1ZM317.47 7.29626L336.635 47.2963L338.439 46.4321L319.274 6.43209L317.47 7.29626ZM320.176 3C317.968 3 316.516 5.30491 317.47 7.29625L319.274 6.4321C318.956 5.76831 319.44 5 320.176 5V3ZM322.659 3H320.176V5H322.659V3ZM325.365 4.70373C324.866 3.66255 323.814 3 322.659 3V5C323.044 5 323.395 5.22084 323.561 5.56792L325.365 4.70373ZM344.53 44.7037L325.365 4.70374L323.561 5.56791L342.726 45.5679L344.53 44.7037ZM341.824 49C344.032 49 345.484 46.6951 344.53 44.7037L342.726 45.5679C343.044 46.2317 342.56 47 341.824 47V49ZM339.341 49H341.824V47H339.341V49ZM336.635 47.2963C337.134 48.3375 338.186 49 339.341 49V47C338.956 47 338.605 46.7792 338.439 46.4321L336.635 47.2963ZM352.439 46.4321L333.274 6.43209L331.47 7.29626L350.635 47.2963L352.439 46.4321ZM353.341 47C352.956 47 352.605 46.7792 352.439 46.4321L350.635 47.2963C351.134 48.3375 352.186 49 353.341 49V47ZM355.824 47H353.341V49H355.824V47ZM356.726 45.5679C357.044 46.2317 356.56 47 355.824 47V49C358.032 49 359.484 46.6951 358.53 44.7037L356.726 45.5679ZM337.561 5.56791L356.726 45.5679L358.53 44.7037L339.365 4.70374L337.561 5.56791ZM336.659 5C337.044 5 337.395 5.22084 337.561 5.56792L339.365 4.70373C338.866 3.66255 337.814 3 336.659 3V5ZM334.176 5H336.659V3H334.176V5ZM333.274 6.4321C332.956 5.76831 333.44 5 334.176 5V3C331.968 3 330.516 5.30491 331.47 7.29625L333.274 6.4321ZM345.47 7.29626L364.635 47.2963L366.439 46.4321L347.274 6.43209L345.47 7.29626ZM348.176 3C345.968 3 344.516 5.30491 345.47 7.29625L347.274 6.4321C346.956 5.76831 347.44 5 348.176 5V3ZM350.659 3H348.176V5H350.659V3ZM353.365 4.70373C352.866 3.66255 351.814 3 350.659 3V5C351.044 5 351.395 5.22084 351.561 5.56792L353.365 4.70373ZM372.53 44.7037L353.365 4.70374L351.561 5.56791L370.726 45.5679L372.53 44.7037ZM369.824 49C372.032 49 373.484 46.6951 372.53 44.7037L370.726 45.5679C371.044 46.2317 370.56 47 369.824 47V49ZM367.341 49H369.824V47H367.341V49ZM364.635 47.2963C365.134 48.3375 366.186 49 367.341 49V47C366.956 47 366.605 46.7792 366.439 46.4321L364.635 47.2963ZM31 80C31 76.134 34.134 73 38 73V71C33.0294 71 29 75.0295 29 80H31ZM31 784V80H29V784H31ZM38 791C34.134 791 31 787.866 31 784H29C29 788.971 33.0295 793 38 793V791ZM1302 791H38V793H1302V791ZM1309 784C1309 787.866 1305.87 791 1302 791V793C1306.97 793 1311 788.971 1311 784H1309ZM1309 80V784H1311V80H1309ZM1302 73C1305.87 73 1309 76.134 1309 80H1311C1311 75.0294 1306.97 71 1302 71V73ZM38 73H1302V71H38V73Z" fill="#526BAB" mask="url(#path-1-inside-1_496_1579)"/>
<g filter="url(#filter0_df_496_1579)">
<line x1="14" y1="286" x2="14" y2="556" stroke="#F4BF01" stroke-width="6" stroke-linecap="round"/>
</g>
<g filter="url(#filter1_df_496_1579)">
<line x1="14" y1="287" x2="14" y2="555" stroke="#FFF8D5" stroke-width="4" stroke-linecap="round"/>
</g>
<g filter="url(#filter2_df_496_1579)">
<line x1="1328" y1="528" x2="1328" y2="789" stroke="#F4BF01" stroke-width="6" stroke-linecap="round"/>
</g>
<g filter="url(#filter3_df_496_1579)">
<line x1="1328" y1="529" x2="1328" y2="788" stroke="#FFF8D5" stroke-width="4" stroke-linecap="round"/>
</g>
<defs>
<filter id="filter0_df_496_1579" x="3" y="275" width="22" height="292" filterUnits="userSpaceOnUse" color-interpolation-filters="sRGB">
<feFlood flood-opacity="0" result="BackgroundImageFix"/>
<feColorMatrix in="SourceAlpha" type="matrix" values="0 0 0 0 0 0 0 0 0 0 0 0 0 0 0 0 0 0 127 0" result="hardAlpha"/>
<feOffset/>
<feGaussianBlur stdDeviation="4"/>
<feComposite in2="hardAlpha" operator="out"/>
<feColorMatrix type="matrix" values="0 0 0 0 0.956863 0 0 0 0 0.749019 0 0 0 0 0.00392157 0 0 0 0.8 0"/>
<feBlend mode="normal" in2="BackgroundImageFix" result="effect1_dropShadow_496_1579"/>
<feBlend mode="normal" in="SourceGraphic" in2="effect1_dropShadow_496_1579" result="shape"/>
<feGaussianBlur stdDeviation="0.5" result="effect2_foregroundBlur_496_1579"/>
</filter>
<filter id="filter1_df_496_1579" x="0" y="273" width="28" height="296" filterUnits="userSpaceOnUse" color-interpolation-filters="sRGB">
<feFlood flood-opacity="0" result="BackgroundImageFix"/>
<feColorMatrix in="SourceAlpha" type="matrix" values="0 0 0 0 0 0 0 0 0 0 0 0 0 0 0 0 0 0 127 0" result="hardAlpha"/>
<feOffset/>
<feGaussianBlur stdDeviation="6"/>
<feComposite in2="hardAlpha" operator="out"/>
<feColorMatrix type="matrix" values="0 0 0 0 0.956863 0 0 0 0 0.749019 0 0 0 0 0.00392157 0 0 0 0.5 0"/>
<feBlend mode="normal" in2="BackgroundImageFix" result="effect1_dropShadow_496_1579"/>
<feBlend mode="normal" in="SourceGraphic" in2="effect1_dropShadow_496_1579" result="shape"/>
<feGaussianBlur stdDeviation="0.25" result="effect2_foregroundBlur_496_1579"/>
</filter>
<filter id="filter2_df_496_1579" x="1317" y="517" width="22" height="283" filterUnits="userSpaceOnUse" color-interpolation-filters="sRGB">
<feFlood flood-opacity="0" result="BackgroundImageFix"/>
<feColorMatrix in="SourceAlpha" type="matrix" values="0 0 0 0 0 0 0 0 0 0 0 0 0 0 0 0 0 0 127 0" result="hardAlpha"/>
<feOffset/>
<feGaussianBlur stdDeviation="4"/>
<feComposite in2="hardAlpha" operator="out"/>
<feColorMatrix type="matrix" values="0 0 0 0 0.956863 0 0 0 0 0.749019 0 0 0 0 0.00392157 0 0 0 0.8 0"/>
<feBlend mode="normal" in2="BackgroundImageFix" result="effect1_dropShadow_496_1579"/>
<feBlend mode="normal" in="SourceGraphic" in2="effect1_dropShadow_496_1579" result="shape"/>
<feGaussianBlur stdDeviation="0.5" result="effect2_foregroundBlur_496_1579"/>
</filter>
<filter id="filter3_df_496_1579" x="1314" y="515" width="28" height="287" filterUnits="userSpaceOnUse" color-interpolation-filters="sRGB">
<feFlood flood-opacity="0" result="BackgroundImageFix"/>
<feColorMatrix in="SourceAlpha" type="matrix" values="0 0 0 0 0 0 0 0 0 0 0 0 0 0 0 0 0 0 127 0" result="hardAlpha"/>
<feOffset/>
<feGaussianBlur stdDeviation="6"/>
<feComposite in2="hardAlpha" operator="out"/>
<feColorMatrix type="matrix" values="0 0 0 0 0.956863 0 0 0 0 0.749019 0 0 0 0 0.00392157 0 0 0 0.5 0"/>
<feBlend mode="normal" in2="BackgroundImageFix" result="effect1_dropShadow_496_1579"/>
<feBlend mode="normal" in="SourceGraphic" in2="effect1_dropShadow_496_1579" result="shape"/>
<feGaussianBlur stdDeviation="0.25" result="effect2_foregroundBlur_496_1579"/>
</filter>
<linearGradient id="paint0_linear_496_1579" x1="476.045" y1="-8" x2="476.045" y2="808" gradientUnits="userSpaceOnUse">
<stop stop-color="#4D5D99"/>
<stop offset="1" stop-color="#2E3361"/>
</linearGradient>
</defs>
</svg>
