<svg width="38" height="24" viewBox="0 0 38 24" fill="none" xmlns="http://www.w3.org/2000/svg">
<path fill-rule="evenodd" clip-rule="evenodd" d="M6.79078 12L0.138703 18.7245C0.0751157 18.7876 0.0316663 18.8681 0.0138325 18.9558C-0.004005 19.0436 0.00458188 19.1347 0.0385136 19.2176C0.0724415 19.3005 0.130169 19.3714 0.204426 19.4215C0.278683 19.4716 0.366131 19.4985 0.455689 19.4989L8.63833 19.4989C8.87592 19.4979 9.10359 19.4035 9.27228 19.2362L15.7976 12.643C15.8818 12.5589 15.9486 12.459 15.9941 12.3491C16.0397 12.2391 16.0632 12.1213 16.0632 12.0023C16.0632 11.8832 16.0397 11.7654 15.9941 11.6555C15.9486 11.5455 15.8818 11.4456 15.7976 11.3615L9.27228 4.75471C9.19002 4.66982 9.09148 4.6024 8.98255 4.55649C8.87361 4.51058 8.75655 4.48715 8.63833 4.48756L0.451158 4.48756C0.361601 4.48793 0.274153 4.51483 0.199896 4.56489C0.125639 4.61496 0.0679109 4.68593 0.0339792 4.76881C5.12651e-05 4.85169 -0.00853563 4.94278 0.00929808 5.03055C0.0271356 5.11831 0.070585 5.19881 0.134172 5.26188L6.79078 12ZM23.0927 12L11.9893 23.2257C11.9257 23.2887 11.8822 23.3692 11.8644 23.457C11.8466 23.5448 11.8551 23.6359 11.8891 23.7187C11.923 23.8016 11.9808 23.8725 12.055 23.9226C12.1293 23.9727 12.2167 23.9996 12.3062 24L25.7055 24C25.9437 23.9978 26.1715 23.9018 26.3394 23.7328L37.3115 12.643C37.3957 12.5589 37.4625 12.459 37.5081 12.3491C37.5537 12.2391 37.5771 12.1213 37.5771 12.0023C37.5771 11.8832 37.5537 11.7654 37.5081 11.6555C37.4625 11.5455 37.3957 11.4456 37.3115 11.3615L26.3395 0.267154C26.1715 0.098176 25.9437 0.00220197 25.7055 -1.03785e-06L12.3198 -2.20806e-06C12.2303 0.000373532 12.1428 0.0273186 12.0686 0.0773846C11.9943 0.127453 11.9366 0.198364 11.9027 0.281248C11.8687 0.36413 11.8601 0.455221 11.878 0.542984C11.8958 0.630748 11.9393 0.711254 12.0029 0.77432L23.0927 12Z" fill="#6E97D7"/>
</svg>
