<svg width="22" height="24" viewBox="0 0 22 24" fill="none" xmlns="http://www.w3.org/2000/svg">
<path d="M19.0996 0H3.01957C1.66357 0 0.55957 1.104 0.55957 2.472V18.696C0.55957 20.064 1.66357 21.168 3.01957 21.168H16.6276L15.9916 18.948L17.5276 20.376L18.9796 21.72L21.5596 24V2.472C21.5596 1.104 20.4556 0 19.0996 0ZM14.4676 15.672C14.4676 15.672 14.0356 15.156 13.6756 14.7C15.2476 14.256 15.8476 13.272 15.8476 13.272C15.3556 13.596 14.8876 13.824 14.4676 13.98C13.8676 14.232 13.2916 14.4 12.7276 14.496C11.5756 14.712 10.5196 14.652 9.61957 14.484C8.93557 14.352 8.34757 14.16 7.85557 13.968C7.57957 13.86 7.27957 13.728 6.97957 13.56C6.94357 13.536 6.90757 13.524 6.87157 13.5C6.84757 13.488 6.83557 13.476 6.82357 13.464C6.60757 13.344 6.48757 13.26 6.48757 13.26C6.48757 13.26 7.06357 14.22 8.58757 14.676C8.22757 15.132 7.78357 15.672 7.78357 15.672C5.13157 15.588 4.12357 13.848 4.12357 13.848C4.12357 9.984 5.85157 6.852 5.85157 6.852C7.57957 5.556 9.22357 5.592 9.22357 5.592L9.34357 5.736C7.18357 6.36 6.18757 7.308 6.18757 7.308C6.18757 7.308 6.45157 7.164 6.89557 6.96C8.17957 6.396 9.19957 6.24 9.61957 6.204C9.69157 6.192 9.75157 6.18 9.82357 6.18C10.5556 6.084 11.3836 6.06 12.2476 6.156C13.3876 6.288 14.6116 6.624 15.8596 7.308C15.8596 7.308 14.9116 6.408 12.8716 5.784L13.0396 5.592C13.0396 5.592 14.6836 5.556 16.4116 6.852C16.4116 6.852 18.1396 9.984 18.1396 13.848C18.1396 13.848 17.1196 15.588 14.4676 15.672Z" fill="#75A0E1"/>
</svg>
