<?xml version="1.0" encoding="UTF-8"?>
<svg xmlns="http://www.w3.org/2000/svg" fill="none" xmlns:xlink="http://www.w3.org/1999/xlink" width="24px" height="24px" viewBox="0 0 24 24" version="1.1">
<g id="surface1">
<path  fill="#75A0E1" d="M 0 0 L 0 24 L 24 24 L 24 0 Z M 22.398438 22.398438 L 1.601562 22.398438 L 1.601562 1.601562 L 22.398438 1.601562 Z M 22.398438 22.398438 "/>
<path  fill="#75A0E1" d="M 5.929688 4.800781 L 9.332031 4.800781 L 9.332031 3.199219 L 3.199219 3.199219 L 3.199219 9.332031 L 4.800781 9.332031 L 4.800781 5.929688 L 9.300781 10.433594 L 10.433594 9.300781 Z M 5.929688 4.800781 "/>
<path  fill="#75A0E1" d="M 10.433594 14.699219 L 9.300781 13.566406 L 4.800781 18.070312 L 4.800781 14.667969 L 3.199219 14.667969 L 3.199219 20.800781 L 9.332031 20.800781 L 9.332031 19.199219 L 5.929688 19.199219 Z M 10.433594 14.699219 "/>
<path  fill="#75A0E1" d="M 19.199219 14.667969 L 19.199219 18.070312 L 14.699219 13.566406 L 13.566406 14.699219 L 18.070312 19.199219 L 14.667969 19.199219 L 14.667969 20.800781 L 20.800781 20.800781 L 20.800781 14.667969 Z M 19.199219 14.667969 "/>
<path  fill="#75A0E1" d="M 14.667969 3.199219 L 14.667969 4.800781 L 18.070312 4.800781 L 13.566406 9.300781 L 14.699219 10.433594 L 19.199219 5.929688 L 19.199219 9.332031 L 20.800781 9.332031 L 20.800781 3.199219 Z M 14.667969 3.199219 "/>
</g>
</svg>
